<?xml version="1.0" standalone="no"?>
<!DOCTYPE svg PUBLIC "-//W3C//DTD SVG 20010904//EN"
 "http://www.w3.org/TR/2001/REC-SVG-20010904/DTD/svg10.dtd">
<svg version="1.0" xmlns="http://www.w3.org/2000/svg"
 width="938.000000pt" height="948.000000pt" viewBox="0 0 938.000000 948.000000"
 preserveAspectRatio="xMidYMid meet">

<g transform="translate(0.000000,948.000000) scale(0.100000,-0.100000)"
fill="#000000" stroke="none">
<path d="M3865 9239 c-1080 -63 -1831 -256 -2364 -607 -137 -90 -268 -201
-396 -333 -621 -647 -885 -1694 -885 -3519 0 -2151 367 -3252 1285 -3856 663
-436 1624 -624 3195 -624 1571 0 2532 188 3195 624 918 604 1285 1705 1285
3856 0 1825 -264 2872 -885 3519 -173 180 -354 320 -560 432 -540 296 -1222
451 -2229 509 -207 12 -1434 11 -1641 -1z m-1364 -3039 c331 -34 621 -168 860
-398 86 -82 189 -208 239 -292 215 -365 258 -849 107 -1225 -86 -212 -166
-336 -315 -489 -304 -310 -731 -468 -1161 -428 -375 36 -676 181 -933 451
-182 191 -302 421 -359 691 -31 149 -32 400 0 549 155 730 819 1215 1562 1141z
m4779 0 c633 -67 1142 -542 1257 -1173 23 -124 23 -379 0 -503 -78 -425 -335
-788 -711 -1003 -303 -172 -691 -224 -1035 -136 -408 104 -739 372 -926 749
-108 220 -150 400 -149 651 2 241 49 440 155 647 270 524 829 829 1409 768z"/>
</g>
</svg>
